
        <svg xmlns="http://www.w3.org/2000/svg" xmlns:xlink="http://www.w3.org/1999/xlink" version="1.1" width="3181.8181818181824" 
        height="990.909090909091" viewBox="0 0 3181.8181818181824 990.909090909091">
			<rect fill="#ffffff" width="3181.8181818181824" height="990.909090909091"/>
			<g transform="scale(9.090909090909092) translate(10, 10)">
				<defs id="SvgjsDefs1422"></defs><g id="SvgjsG1423" featureKey="symbolContainer" transform="matrix(1,0,0,1,0,0)" fill="#000000"><rect width="110" height="89" rx="8"></rect></g><g id="SvgjsG1424" featureKey="symbolFeature-0" transform="matrix(0.777775470128254,0,0,0.777775470128254,16.11099692366771,5.486661844621059)" fill="#ffffff"><path xmlns="http://www.w3.org/2000/svg" fill-rule="evenodd" clip-rule="evenodd" d="M37.854,26.105c4.419,0.427,9.428,0.088,13.873,1.506  c9.941,3.172,12.788,12.875,6.951,21.616c-5.842,8.748-19.074,12.679-28.707,8.529c-5.733-2.47-8.564-7.035-8.386-13.493  c0.031-1.115,0.004-2.23,0.004-3.859c-1.384,1.08-2.314,2.11-3.474,2.62c-1.036,0.456-2.631,0.83-3.42,0.339  c-0.834-0.521-1.51-2.167-1.378-3.21c0.498-3.95,2.573-7.114,5.903-9.304c2.276-1.498,4.431-0.314,4.684,2.432  c0.073,0.803,0.011,1.618,0.011,2.586c3.181-2.606,6.212-5.089,9.882-8.096c-1.812,0.348-2.923,0.822-3.96,0.692  c-1.139-0.141-2.447-0.605-3.204-1.391c-0.354-0.366,0.118-2.113,0.728-2.727c3.469-3.495,7.695-5.516,12.689-5.434  c2.33,0.038,3.104,1.875,1.559,3.693C40.347,24.094,38.744,25.293,37.854,26.105z"></path><path xmlns="http://www.w3.org/2000/svg" fill-rule="evenodd" clip-rule="evenodd" d="M67.94,49.245c6.422,0.004,9.633,4.886,6.659,10.807  c-3.024,6.023-8.019,9.765-15.011,9.989c-6.783,0.217-9.113-4.218-6.999-10.354C54.57,53.937,61.87,49.242,67.94,49.245z"></path><path xmlns="http://www.w3.org/2000/svg" fill-rule="evenodd" clip-rule="evenodd" d="M74.326,45.595c-5.795-0.04-10.959-5.349-10.944-11.251  c0.01-4.357,3.075-7.577,7.186-7.55c5.739,0.039,11.674,6.009,11.645,11.717C82.191,42.906,79.158,45.627,74.326,45.595z"></path><path xmlns="http://www.w3.org/2000/svg" fill-rule="evenodd" clip-rule="evenodd" d="M36.197,75.248c-2.691-0.746-5.478-1.256-8.046-2.303  c-2.54-1.036-4.417-3.082-4.375-6.015c0.041-2.863,2.01-4.553,4.556-5.425c4.971-1.703,9.95-1.554,14.65,0.823  c2.614,1.323,4.723,3.389,4.095,6.751c-0.636,3.414-3.49,4.53-6.349,5.351c-1.381,0.397-2.913,0.271-4.377,0.383  C36.3,74.958,36.249,75.102,36.197,75.248z"></path><path xmlns="http://www.w3.org/2000/svg" fill-rule="evenodd" clip-rule="evenodd" d="M88.205,52.5c5.772-0.035,8.319,4.093,5.863,8.747  c-2.173,4.12-7.616,6.623-11.453,5.267c-3.709-1.311-5.093-4.566-3.344-8.096C81.184,54.559,84.474,52.786,88.205,52.5z"></path><path xmlns="http://www.w3.org/2000/svg" fill-rule="evenodd" clip-rule="evenodd" d="M46.266,87.77c-2.305-0.647-4.112-0.884-5.658-1.646  c-3.387-1.671-3.609-5.446-0.465-7.569c3.783-2.554,7.987-2.739,12.106-1.13c3.565,1.392,4.038,5.329,0.839,7.496  C51.013,86.325,48.388,86.917,46.266,87.77z"></path><path xmlns="http://www.w3.org/2000/svg" fill-rule="evenodd" clip-rule="evenodd" d="M57.453,27.11c-2.69-0.852-5.713-1.424-8.362-2.749  c-2.986-1.494-2.787-4.063,0.091-5.745c3.72-2.173,12.656-1.704,16.048,0.843c2.476,1.857,2.406,4.397-0.435,5.661  C62.648,26.075,60.217,26.391,57.453,27.11z"></path><path xmlns="http://www.w3.org/2000/svg" fill-rule="evenodd" clip-rule="evenodd" d="M23.009,56.955c0.223,2.711-0.844,4.873-3.298,5.907  c-2.602,1.095-4.785-0.288-6.373-2.243c-2.035-2.506-3.362-5.387-2.407-8.749c1.258-4.428,5.612-5.746,8.71-2.37  c1.798,1.958,2.784,4.662,4.135,7.029C23.521,56.671,23.265,56.813,23.009,56.955z"></path><path xmlns="http://www.w3.org/2000/svg" fill-rule="evenodd" clip-rule="evenodd" d="M75.446,15.578c2.298,1.132,4.353,1.767,5.882,3.037  c0.915,0.759,1.645,2.734,1.288,3.751c-0.365,1.041-2.194,2.245-3.323,2.188c-1.999-0.1-4.194-0.742-5.84-1.851  c-1.147-0.772-2.348-2.96-2.011-4.048C71.828,17.411,73.889,16.688,75.446,15.578z"></path><path xmlns="http://www.w3.org/2000/svg" fill-rule="evenodd" clip-rule="evenodd" d="M16.589,70.245c-0.965,1.368-1.612,3.255-2.71,3.568  c-1.08,0.307-3.025-0.646-3.847-1.653c-1.048-1.285-1.825-3.18-1.823-4.81c0.002-1.304,1.066-3.109,2.191-3.732  c0.768-0.426,2.856,0.455,3.629,1.366C15.165,66.325,15.651,68.213,16.589,70.245z"></path><path xmlns="http://www.w3.org/2000/svg" fill-rule="evenodd" clip-rule="evenodd" d="M45.207,17.008c-1.104-0.705-2.2-1.406-3.298-2.105  c1.098-0.819,2.091-2.043,3.317-2.354c1.657-0.42,3.54-0.396,5.239-0.088c1.749,0.317,2.037,1.67,0.427,2.551  C49.295,15.886,47.424,16.257,45.207,17.008z"></path><path xmlns="http://www.w3.org/2000/svg" fill-rule="evenodd" clip-rule="evenodd" d="M10.555,41.71c-0.106,3.194-2.276,6.416-3.938,6.2  c-0.639-0.083-1.572-1.251-1.612-1.966c-0.132-2.368,2.467-5.919,4.086-5.665C9.78,40.388,10.317,41.462,10.555,41.71z"></path><path xmlns="http://www.w3.org/2000/svg" fill-rule="evenodd" clip-rule="evenodd" d="M19.22,28.43c-0.552-1.517-1.03-2.235-0.991-2.923  c0.028-0.5,0.647-1.162,1.165-1.403c1.829-0.85,3.725-1.549,5.596-2.307c0.114,0.565,0.515,1.45,0.297,1.645  C23.54,25.011,21.674,26.448,19.22,28.43z"></path></g><g id="SvgjsG1425" featureKey="nameFeature-0" transform="matrix(0.5485463429839244,0,0,0.5485463429839244,128.26659363987233,31.185408555116577)" fill="#000000"><path d="M15.08 40.44 c-7.28 0 -11.92 -4.2 -11.92 -12.32 l0 -13.88 c0 -1.36 1.08 -2.44 2.48 -2.44 c1.36 0 2.44 1.08 2.44 2.44 l0 13.68 c0 5.2 2.68 7.96 7.08 7.96 c4.36 0 7.04 -2.6 7.04 -7.76 l0 -13.88 c0 -1.36 1.08 -2.44 2.48 -2.44 c1.36 0 2.44 1.08 2.44 2.44 l0 13.64 c0 8.36 -4.72 12.56 -12.04 12.56 z M40.4 40.36 c-3.56 0 -6.08 -1.56 -6.08 -6.2 l0 -11.12 l-0.8 0 c-1.16 0 -2.08 -0.92 -2.08 -2.08 s0.92 -2.08 2.08 -2.08 l0.8 0 l0 -3.6 c0 -1.32 1.08 -2.4 2.44 -2.4 c1.32 0 2.4 1.08 2.4 2.4 l0 3.6 l3.8 0 c1.16 0 2.12 0.92 2.12 2.08 s-0.96 2.08 -2.12 2.08 l-3.8 0 l0 10.36 c0 1.88 0.96 2.64 2.6 2.64 c0.56 0 1.04 -0.12 1.2 -0.12 c1.08 0 2.04 0.88 2.04 2 c0 0.88 -0.6 1.6 -1.28 1.88 c-1.04 0.36 -2.04 0.56 -3.32 0.56 z M56.839999999999996 40.36 c-3.56 0 -6.08 -1.56 -6.08 -6.2 l0 -11.12 l-0.8 0 c-1.16 0 -2.08 -0.92 -2.08 -2.08 s0.92 -2.08 2.08 -2.08 l0.8 0 l0 -3.6 c0 -1.32 1.08 -2.4 2.44 -2.4 c1.32 0 2.4 1.08 2.4 2.4 l0 3.6 l3.8 0 c1.16 0 2.12 0.92 2.12 2.08 s-0.96 2.08 -2.12 2.08 l-3.8 0 l0 10.36 c0 1.88 0.96 2.64 2.6 2.64 c0.56 0 1.04 -0.12 1.2 -0.12 c1.08 0 2.04 0.88 2.04 2 c0 0.88 -0.6 1.6 -1.28 1.88 c-1.04 0.36 -2.04 0.56 -3.32 0.56 z M66.2 37.8 l0 -24.8 c0 -1.32 1.04 -2.4 2.4 -2.4 s2.44 1.08 2.44 2.4 l0 9.12 c1.36 -1.96 3.32 -3.68 6.6 -3.68 c4.76 0 7.52 3.2 7.52 8.08 l0 11.28 c0 1.36 -1.04 2.4 -2.4 2.4 s-2.44 -1.04 -2.44 -2.4 l0 -9.8 c0 -3.28 -1.64 -5.16 -4.52 -5.16 c-2.8 0 -4.76 1.96 -4.76 5.24 l0 9.72 c0 1.36 -1.08 2.4 -2.44 2.4 c-1.32 0 -2.4 -1.04 -2.4 -2.4 z M97.08 40.44 c-3.96 0 -7.48 -2.28 -7.48 -6.52 l0 -0.08 c0 -4.56 3.56 -6.8 8.72 -6.8 c2.36 0 4.04 0.36 5.68 0.88 l0 -0.52 c0 -3 -1.84 -4.6 -5.24 -4.6 c-1.84 0 -3.36 0.32 -4.68 0.84 c-0.28 0.08 -0.52 0.12 -0.76 0.12 c-1.12 0 -2.04 -0.88 -2.04 -2 c0 -0.88 0.6 -1.64 1.32 -1.92 c2 -0.76 4.04 -1.24 6.8 -1.24 c3.16 0 5.52 0.84 7 2.36 c1.56 1.52 2.28 3.76 2.28 6.52 l0 10.4 c0 1.32 -1.04 2.32 -2.36 2.32 c-1.4 0 -2.36 -0.96 -2.36 -2.04 l0 -0.8 c-1.44 1.72 -3.64 3.08 -6.88 3.08 z M98.44 36.92 c3.2 0 5.64 -1.84 5.64 -4.52 l0 -1.44 c-1.24 -0.48 -2.88 -0.84 -4.8 -0.84 c-3.12 0 -4.96 1.32 -4.96 3.52 l0 0.08 c0 2.04 1.8 3.2 4.12 3.2 z M114.48 37.8 l0 -16.72 c0 -1.36 1.04 -2.44 2.4 -2.44 s2.44 1.08 2.44 2.44 l0 1.04 c1.36 -1.96 3.32 -3.68 6.6 -3.68 c4.76 0 7.52 3.2 7.52 8.08 l0 11.28 c0 1.36 -1.04 2.4 -2.4 2.4 s-2.44 -1.04 -2.44 -2.4 l0 -9.8 c0 -3.28 -1.64 -5.16 -4.52 -5.16 c-2.8 0 -4.76 1.96 -4.76 5.24 l0 9.72 c0 1.36 -1.08 2.4 -2.44 2.4 c-1.32 0 -2.4 -1.04 -2.4 -2.4 z M151.20000000000002 13.440000000000001 l0 -0.24 c0 -1.44 1.2 -2.36 2.76 -2.36 s2.76 0.92 2.76 2.36 l0 0.24 c0 1.44 -1.2 2.4 -2.76 2.4 s-2.76 -0.96 -2.76 -2.4 z M151.56 37.8 l0 -16.72 c0 -1.36 1.04 -2.44 2.4 -2.44 s2.44 1.08 2.44 2.44 l0 16.72 c0 1.36 -1.08 2.4 -2.44 2.4 c-1.32 0 -2.4 -1.04 -2.4 -2.4 z M169.8 40.36 c-3.56 0 -6.08 -1.56 -6.08 -6.2 l0 -11.12 l-0.8 0 c-1.16 0 -2.08 -0.92 -2.08 -2.08 s0.92 -2.08 2.08 -2.08 l0.8 0 l0 -3.6 c0 -1.32 1.08 -2.4 2.44 -2.4 c1.32 0 2.4 1.08 2.4 2.4 l0 3.6 l3.8 0 c1.16 0 2.12 0.92 2.12 2.08 s-0.96 2.08 -2.12 2.08 l-3.8 0 l0 10.36 c0 1.88 0.96 2.64 2.6 2.64 c0.56 0 1.04 -0.12 1.2 -0.12 c1.08 0 2.04 0.88 2.04 2 c0 0.88 -0.6 1.6 -1.28 1.88 c-1.04 0.36 -2.04 0.56 -3.32 0.56 z M198.4 40.4 c-2.68 0 -5.6 -0.84 -8.04 -2.52 c-0.52 -0.28 -0.92 -0.88 -0.92 -1.68 c0 -1.08 0.84 -1.96 1.96 -1.96 c0.4 0 0.76 0.12 1.04 0.28 c2.04 1.36 4.16 2.04 6.08 2.04 c2.08 0 3.28 -0.88 3.28 -2.28 l0 -0.08 c0 -1.64 -2.24 -2.2 -4.72 -2.96 c-3.12 -0.88 -6.6 -2.16 -6.6 -6.2 l0 -0.08 c0 -4 3.32 -6.44 7.52 -6.44 c2.24 0 4.6 0.64 6.64 1.72 c0.68 0.36 1.16 1 1.16 1.84 c0 1.12 -0.88 1.96 -2 1.96 c-0.4 0 -0.64 -0.08 -0.96 -0.24 c-1.72 -0.88 -3.48 -1.44 -4.96 -1.44 c-1.88 0 -2.96 0.88 -2.96 2.08 l0 0.08 c0 1.56 2.28 2.2 4.76 3 c3.08 0.96 6.56 2.36 6.56 6.16 l0 0.08 c0 4.44 -3.44 6.64 -7.84 6.64 z M221.24 40.48 c-6.44 0 -11.2 -4.92 -11.2 -10.92 l0 -0.08 c0 -6.04 4.8 -11.04 11.28 -11.04 s11.24 4.92 11.24 10.96 l0 0.08 c0 6 -4.8 11 -11.32 11 z M221.32 36.24 c3.92 0 6.4 -3.04 6.4 -6.68 l0 -0.08 c0 -3.72 -2.68 -6.8 -6.48 -6.8 c-3.88 0 -6.36 3.04 -6.36 6.72 l0 0.08 c0 3.68 2.68 6.76 6.44 6.76 z M237.76 37.8 l0 -24.8 c0 -1.32 1.04 -2.4 2.4 -2.4 s2.44 1.08 2.44 2.4 l0 24.8 c0 1.36 -1.08 2.4 -2.44 2.4 c-1.32 0 -2.4 -1.04 -2.4 -2.4 z M267.68 21.08 l0 16.72 c0 1.32 -1.08 2.4 -2.44 2.4 c-1.32 0 -2.44 -1.04 -2.44 -2.4 l0 -1.08 c-1.36 2 -3.32 3.72 -6.6 3.72 c-4.76 0 -7.52 -3.2 -7.52 -8.12 l0 -11.24 c0 -1.36 1.08 -2.44 2.4 -2.44 c1.36 0 2.44 1.08 2.44 2.44 l0 9.8 c0 3.28 1.64 5.12 4.52 5.12 c2.8 0 4.76 -1.92 4.76 -5.2 l0 -9.72 c0 -1.36 1.08 -2.44 2.44 -2.44 c1.32 0 2.44 1.08 2.44 2.44 z M280.8 40.36 c-3.56 0 -6.08 -1.56 -6.08 -6.2 l0 -11.12 l-0.8 0 c-1.16 0 -2.08 -0.92 -2.08 -2.08 s0.92 -2.08 2.08 -2.08 l0.8 0 l0 -3.6 c0 -1.32 1.08 -2.4 2.44 -2.4 c1.32 0 2.4 1.08 2.4 2.4 l0 3.6 l3.8 0 c1.16 0 2.12 0.92 2.12 2.08 s-0.96 2.08 -2.12 2.08 l-3.8 0 l0 10.36 c0 1.88 0.96 2.64 2.6 2.64 c0.56 0 1.04 -0.12 1.2 -0.12 c1.08 0 2.04 0.88 2.04 2 c0 0.88 -0.6 1.6 -1.28 1.88 c-1.04 0.36 -2.04 0.56 -3.32 0.56 z M290.08 13.440000000000001 l0 -0.24 c0 -1.44 1.2 -2.36 2.76 -2.36 s2.76 0.92 2.76 2.36 l0 0.24 c0 1.44 -1.2 2.4 -2.76 2.4 s-2.76 -0.96 -2.76 -2.4 z M290.44 37.8 l0 -16.72 c0 -1.36 1.04 -2.44 2.4 -2.44 s2.44 1.08 2.44 2.44 l0 16.72 c0 1.36 -1.08 2.4 -2.44 2.4 c-1.32 0 -2.4 -1.04 -2.4 -2.4 z M311.64 40.48 c-6.44 0 -11.2 -4.92 -11.2 -10.92 l0 -0.08 c0 -6.04 4.8 -11.04 11.28 -11.04 s11.24 4.92 11.24 10.96 l0 0.08 c0 6 -4.8 11 -11.32 11 z M311.72 36.24 c3.92 0 6.4 -3.04 6.4 -6.68 l0 -0.08 c0 -3.72 -2.68 -6.8 -6.48 -6.8 c-3.88 0 -6.36 3.04 -6.36 6.72 l0 0.08 c0 3.68 2.68 6.76 6.44 6.76 z M327.88000000000005 37.8 l0 -16.72 c0 -1.36 1.04 -2.44 2.4 -2.44 s2.44 1.08 2.44 2.44 l0 1.04 c1.36 -1.96 3.32 -3.68 6.6 -3.68 c4.76 0 7.52 3.2 7.52 8.08 l0 11.28 c0 1.36 -1.04 2.4 -2.4 2.4 s-2.44 -1.04 -2.44 -2.4 l0 -9.8 c0 -3.28 -1.64 -5.16 -4.52 -5.16 c-2.8 0 -4.76 1.96 -4.76 5.24 l0 9.72 c0 1.36 -1.08 2.4 -2.44 2.4 c-1.32 0 -2.4 -1.04 -2.4 -2.4 z M359.92 40.4 c-2.68 0 -5.6 -0.84 -8.04 -2.52 c-0.52 -0.28 -0.92 -0.88 -0.92 -1.68 c0 -1.08 0.84 -1.96 1.96 -1.96 c0.4 0 0.76 0.12 1.04 0.28 c2.04 1.36 4.16 2.04 6.08 2.04 c2.08 0 3.28 -0.88 3.28 -2.28 l0 -0.08 c0 -1.64 -2.24 -2.2 -4.72 -2.96 c-3.12 -0.88 -6.6 -2.16 -6.6 -6.2 l0 -0.08 c0 -4 3.32 -6.44 7.52 -6.44 c2.24 0 4.6 0.64 6.64 1.72 c0.68 0.36 1.16 1 1.16 1.84 c0 1.12 -0.88 1.96 -2 1.96 c-0.4 0 -0.64 -0.08 -0.96 -0.24 c-1.72 -0.88 -3.48 -1.44 -4.96 -1.44 c-1.88 0 -2.96 0.88 -2.96 2.08 l0 0.08 c0 1.56 2.28 2.2 4.76 3 c3.08 0.96 6.56 2.36 6.56 6.16 l0 0.08 c0 4.44 -3.44 6.64 -7.84 6.64 z"></path></g>
			</g>
		</svg>
	